<?xml version="1.0" standalone="no"?>
<!DOCTYPE svg PUBLIC "-//W3C//DTD SVG 20010904//EN"
 "http://www.w3.org/TR/2001/REC-SVG-20010904/DTD/svg10.dtd">
<svg version="1.0" xmlns="http://www.w3.org/2000/svg"
 width="700.000000pt" height="700.000000pt" viewBox="0 0 700.000000 700.000000"
 preserveAspectRatio="xMidYMid meet">
<metadata>
Created by potrace 1.11, written by Peter Selinger 2001-2013
</metadata>
<g transform="translate(0.000000,700.000000) scale(0.100000,-0.100000)"
fill="#000000" stroke="none">
<path d="M3135 5594 c-22 -2 -89 -8 -150 -14 -433 -41 -857 -169 -1097 -331
-88 -60 -181 -160 -219 -236 l-34 -68 0 -1800 0 -1800 30 -58 c131 -255 577
-452 1220 -538 149 -21 211 -23 510 -23 272 0 366 3 470 18 432 59 736 157
980 314 39 24 109 84 157 132 70 69 95 103 125 166 l38 79 3 1700 c1 1076 -1
1724 -7 1764 -15 94 -54 165 -135 247 -213 214 -613 362 -1166 430 -118 14
-630 27 -725 18z m450 -74 c746 -38 1333 -255 1476 -547 35 -71 33 -169 -5
-242 -135 -259 -631 -463 -1283 -526 -172 -17 -535 -19 -708 -5 -698 59 -1253
295 -1344 573 -96 292 334 583 1034 700 141 24 342 44 500 50 39 2 86 4 105 5
19 1 121 -3 225 -8z"/>
<path d="M2718 5336 c-339 -50 -619 -94 -623 -97 -8 -8 185 -691 199 -705 6
-6 257 -66 557 -134 l546 -123 547 124 c301 68 552 126 556 129 16 10 208 711
196 715 -39 12 -1271 185 -1312 184 -27 -1 -327 -42 -666 -93z m1086 -406
c218 -201 396 -368 396 -372 0 -5 -65 -8 -145 -8 l-146 0 -81 85 -81 85 -348
0 -349 0 -81 -85 -82 -85 -149 0 c-83 0 -148 4 -146 9 5 15 801 742 809 739 3
-2 185 -167 403 -368z"/>
<path d="M3280 4945 l-115 -115 230 0 230 0 -115 115 c-63 63 -115 115 -115
115 0 0 -52 -52 -115 -115z"/>
</g>
</svg>
